<?xml version="1.0" encoding="UTF-8"?>
<svg xmlns="http://www.w3.org/2000/svg" xmlns:xlink="http://www.w3.org/1999/xlink" viewBox="0 0 50 50" width="50px" height="50px">
<g id="surface750548">
<path style=" stroke:none;fill-rule:nonzero;fill:rgb(97.254902%,80.392158%,9.411765%);fill-opacity:1;" d="M 38.5 6 C 38.222656 6 38 6.222656 38 6.5 C 38 6.777344 38.222656 7 38.5 7 C 38.777344 7 39 6.777344 39 6.5 C 39 6.222656 38.777344 6 38.5 6 Z M 38.5 6 "/>
<path style=" stroke:none;fill-rule:nonzero;fill:rgb(100%,80.784315%,76.078433%);fill-opacity:1;" d="M 25 6.5 C 14.78125 6.5 6.5 14.78125 6.5 25 C 6.5 35.21875 14.78125 43.5 25 43.5 C 35.21875 43.5 43.5 35.21875 43.5 25 C 43.5 14.78125 35.21875 6.5 25 6.5 Z M 25 6.5 "/>
<path style=" stroke:none;fill-rule:nonzero;fill:rgb(97.254902%,80.392158%,9.411765%);fill-opacity:1;" d="M 41.5 5.5 C 40.394531 5.5 39.5 6.394531 39.5 7.5 C 39.5 8.605469 40.394531 9.5 41.5 9.5 C 42.605469 9.5 43.5 8.605469 43.5 7.5 C 43.5 6.394531 42.605469 5.5 41.5 5.5 Z M 41.5 5.5 "/>
<path style=" stroke:none;fill-rule:nonzero;fill:rgb(80.392158%,25.098041%,32.941177%);fill-opacity:1;" d="M 43.5 11 C 42.949219 11 42.5 11.449219 42.5 12 C 42.5 12.550781 42.949219 13 43.5 13 C 44.050781 13 44.5 12.550781 44.5 12 C 44.5 11.449219 44.050781 11 43.5 11 Z M 43.5 11 "/>
<path style=" stroke:none;fill-rule:nonzero;fill:rgb(100%,43.529412%,2.352941%);fill-opacity:1;" d="M 40.5 37 C 39.949219 37 39.5 37.449219 39.5 38 C 39.5 38.550781 39.949219 39 40.5 39 C 41.050781 39 41.5 38.550781 41.5 38 C 41.5 37.449219 41.050781 37 40.5 37 Z M 7.5 29.5 C 6.394531 29.5 5.5 30.394531 5.5 31.5 C 5.5 32.605469 6.394531 33.5 7.5 33.5 C 8.605469 33.5 9.5 32.605469 9.5 31.5 C 9.5 30.394531 8.605469 29.5 7.5 29.5 Z M 7.5 29.5 "/>
<path style=" stroke:none;fill-rule:nonzero;fill:rgb(80.392158%,25.098041%,32.941177%);fill-opacity:1;" d="M 12.5 42.5 C 11.949219 42.5 11.5 42.949219 11.5 43.5 C 11.5 44.050781 11.949219 44.5 12.5 44.5 C 13.050781 44.5 13.5 44.050781 13.5 43.5 C 13.5 42.949219 13.050781 42.5 12.5 42.5 Z M 12.5 42.5 "/>
<path style=" stroke:none;fill-rule:nonzero;fill:rgb(100%,100%,100%);fill-opacity:1;" d="M 9.25 24.5 C 8.558594 24.5 8 25.058594 8 25.75 C 8 26.441406 8.558594 27 9.25 27 C 9.941406 27 10.5 26.441406 10.5 25.75 C 10.5 25.058594 9.941406 24.5 9.25 24.5 Z M 39.75 16 C 39.335938 16 39 16.335938 39 16.75 C 39 17.164062 39.335938 17.5 39.75 17.5 C 40.164062 17.5 40.5 17.164062 40.5 16.75 C 40.5 16.335938 40.164062 16 39.75 16 Z M 39.75 16 "/>
<path style=" stroke:none;fill-rule:nonzero;fill:rgb(47.058824%,62.7451%,81.176472%);fill-opacity:1;" d="M 18.113281 24.121094 L 18.113281 34.4375 L 14.03125 34.4375 C 13.183594 34.4375 12.5 33.847656 12.5 33 L 12.5 19.734375 Z M 18.113281 24.121094 "/>
<path style=" stroke:none;fill-rule:nonzero;fill:rgb(92.941177%,0.784314%,0%);fill-opacity:1;" d="M 18.113281 17 L 18.113281 24.121094 L 12.5 19.734375 L 12.5 18.367188 C 12.5 17.714844 12.722656 17.113281 13.097656 16.636719 C 14.019531 15.4375 15.835938 15.195312 17.035156 16.160156 Z M 18.113281 17 "/>
<path style=" stroke:none;fill-rule:nonzero;fill:rgb(99.215686%,29.019609%,22.352941%);fill-opacity:1;" d="M 31.886719 17 L 31.886719 24.117188 L 25 29.5 L 18.113281 24.121094 L 18.113281 17 L 25 22.378906 Z M 31.886719 17 "/>
<path style=" stroke:none;fill-rule:nonzero;fill:rgb(97.254902%,80.392158%,9.411765%);fill-opacity:1;" d="M 37.5 18.367188 L 37.5 19.734375 L 31.886719 24.117188 L 31.886719 17 L 32.964844 16.15625 C 33.480469 15.753906 34.085938 15.5625 34.695312 15.5625 C 36.203125 15.546875 37.515625 16.828125 37.5 18.367188 Z M 37.5 18.367188 "/>
<path style=" stroke:none;fill-rule:nonzero;fill:rgb(61.176473%,65.490198%,29.803923%);fill-opacity:1;" d="M 37.5 19.734375 L 37.5 32.910156 C 37.5 33.753906 36.816406 34.4375 35.96875 34.4375 L 31.886719 34.4375 L 31.886719 24.117188 Z M 37.5 19.734375 "/>
<path style="fill:none;stroke-width:0.75;stroke-linecap:round;stroke-linejoin:round;stroke:rgb(27.843139%,16.862746%,16.078432%);stroke-opacity:1;stroke-miterlimit:10;" d="M 48.2675 109.690313 L 48.2675 113.1975 " transform="matrix(0.290698,0,0,0.290698,0,0)"/>
<path style="fill:none;stroke-width:0.75;stroke-linecap:round;stroke-linejoin:round;stroke:rgb(27.843139%,16.862746%,16.078432%);stroke-opacity:1;stroke-miterlimit:10;" d="M 48.2675 99.16875 L 48.2675 104.422812 " transform="matrix(0.290698,0,0,0.290698,0,0)"/>
<path style="fill:none;stroke-width:0.75;stroke-linecap:round;stroke-linejoin:round;stroke:rgb(27.843139%,16.862746%,16.078432%);stroke-opacity:1;stroke-miterlimit:10;" d="M 48.2675 81.605937 L 48.2675 93.79375 " transform="matrix(0.290698,0,0,0.290698,0,0)"/>
<path style="fill:none;stroke-width:2.408;stroke-linecap:butt;stroke-linejoin:round;stroke:rgb(27.843139%,16.862746%,16.078432%);stroke-opacity:1;stroke-miterlimit:10;" d="M 62.309688 58.883125 L 62.309688 118.465 L 48.2675 118.465 C 45.351562 118.465 43 116.113438 43 113.1975 L 43 63.183125 C 43 57.848437 47.326875 53.535 52.648125 53.535 " transform="matrix(0.290698,0,0,0.290698,0,0)"/>
<path style="fill:none;stroke-width:2.408;stroke-linecap:butt;stroke-linejoin:round;stroke:rgb(27.843139%,16.862746%,16.078432%);stroke-opacity:1;stroke-miterlimit:10;" d="M 126.9575 57.24375 C 123.665312 53.037813 117.605 52.29875 113.399062 55.5775 L 86 76.983437 L 58.600938 55.5775 C 54.395 52.29875 48.334688 53.037813 45.0425 57.24375 " transform="matrix(0.290698,0,0,0.290698,0,0)"/>
<path style="fill:none;stroke-width:0.75;stroke-linecap:round;stroke-linejoin:round;stroke:rgb(27.843139%,16.862746%,16.078432%);stroke-opacity:1;stroke-miterlimit:10;" d="M 88.432187 92.88 L 96.414062 86.564375 " transform="matrix(0.290698,0,0,0.290698,0,0)"/>
<path style="fill:none;stroke-width:0.75;stroke-linecap:round;stroke-linejoin:round;stroke:rgb(27.843139%,16.862746%,16.078432%);stroke-opacity:1;stroke-miterlimit:10;" d="M 78.515312 88.889062 L 84.723438 93.79375 " transform="matrix(0.290698,0,0,0.290698,0,0)"/>
<path style="fill:none;stroke-width:0.75;stroke-linecap:round;stroke-linejoin:round;stroke:rgb(27.843139%,16.862746%,16.078432%);stroke-opacity:1;stroke-miterlimit:10;" d="M 71.635312 83.446875 L 75.760625 86.69875 " transform="matrix(0.290698,0,0,0.290698,0,0)"/>
<path style="fill:none;stroke-width:0.75;stroke-linecap:round;stroke-linejoin:round;stroke:rgb(27.843139%,16.862746%,16.078432%);stroke-opacity:1;stroke-miterlimit:10;" d="M 67.106875 79.859062 L 68.880625 81.27 " transform="matrix(0.290698,0,0,0.290698,0,0)"/>
<path style="fill:none;stroke-width:2.408;stroke-linecap:butt;stroke-linejoin:round;stroke:rgb(27.843139%,16.862746%,16.078432%);stroke-opacity:1;stroke-miterlimit:10;" d="M 43.282187 68.114688 L 86 101.493437 L 128.690937 68.141562 " transform="matrix(0.290698,0,0,0.290698,0,0)"/>
<path style="fill:none;stroke-width:2.408;stroke-linecap:butt;stroke-linejoin:round;stroke:rgb(27.843139%,16.862746%,16.078432%);stroke-opacity:1;stroke-miterlimit:10;" d="M 119.351875 53.535 C 124.673125 53.535 129 57.848437 129 63.183125 L 129 113.1975 C 129 116.113438 126.635 118.465 123.7325 118.465 L 109.690313 118.465 L 109.690313 58.762187 " transform="matrix(0.290698,0,0,0.290698,0,0)"/>
</g>
</svg>
