<?xml version="1.0" encoding="UTF-8"?>
<svg xmlns="http://www.w3.org/2000/svg" xmlns:xlink="http://www.w3.org/1999/xlink" viewBox="0 0 50 50" width="50px" height="50px">
<g id="surface716372">
<path style=" stroke:none;fill-rule:nonzero;fill:rgb(93.333334%,24.313726%,32.941177%);fill-opacity:1;" d="M 7.5 14.5 C 7.5 15.050781 7.050781 15.5 6.5 15.5 C 5.949219 15.5 5.5 15.050781 5.5 14.5 C 5.5 13.949219 5.949219 13.5 6.5 13.5 C 7.050781 13.5 7.5 13.949219 7.5 14.5 Z M 7.5 14.5 "/>
<path style=" stroke:none;fill-rule:nonzero;fill:rgb(94.509804%,73.725492%,9.803922%);fill-opacity:1;" d="M 39 6.5 C 39 6.777344 38.777344 7 38.5 7 C 38.222656 7 38 6.777344 38 6.5 C 38 6.222656 38.222656 6 38.5 6 C 38.777344 6 39 6.222656 39 6.5 Z M 39 6.5 "/>
<path style=" stroke:none;fill-rule:nonzero;fill:rgb(96.470588%,75.686276%,66.274512%);fill-opacity:1;" d="M 43.5 25 C 43.5 35.21875 35.21875 43.5 25 43.5 C 14.78125 43.5 6.5 35.21875 6.5 25 C 6.5 14.78125 14.78125 6.5 25 6.5 C 35.21875 6.5 43.5 14.78125 43.5 25 Z M 43.5 25 "/>
<path style=" stroke:none;fill-rule:nonzero;fill:rgb(94.509804%,73.725492%,9.803922%);fill-opacity:1;" d="M 43.5 7.5 C 43.5 8.605469 42.605469 9.5 41.5 9.5 C 40.394531 9.5 39.5 8.605469 39.5 7.5 C 39.5 6.394531 40.394531 5.5 41.5 5.5 C 42.605469 5.5 43.5 6.394531 43.5 7.5 Z M 43.5 7.5 "/>
<path style=" stroke:none;fill-rule:nonzero;fill:rgb(93.333334%,24.313726%,32.941177%);fill-opacity:1;" d="M 44.5 12 C 44.5 12.550781 44.050781 13 43.5 13 C 42.949219 13 42.5 12.550781 42.5 12 C 42.5 11.449219 42.949219 11 43.5 11 C 44.050781 11 44.5 11.449219 44.5 12 Z M 44.5 12 "/>
<path style=" stroke:none;fill-rule:nonzero;fill:rgb(98.431373%,80.392158%,34.901962%);fill-opacity:1;" d="M 41.5 38 C 41.5 38.550781 41.050781 39 40.5 39 C 39.949219 39 39.5 38.550781 39.5 38 C 39.5 37.449219 39.949219 37 40.5 37 C 41.050781 37 41.5 37.449219 41.5 38 Z M 41.5 38 "/>
<path style=" stroke:none;fill-rule:nonzero;fill:rgb(98.431373%,80.392158%,34.901962%);fill-opacity:1;" d="M 9.5 31.5 C 9.5 32.605469 8.605469 33.5 7.5 33.5 C 6.394531 33.5 5.5 32.605469 5.5 31.5 C 5.5 30.394531 6.394531 29.5 7.5 29.5 C 8.605469 29.5 9.5 30.394531 9.5 31.5 Z M 9.5 31.5 "/>
<path style=" stroke:none;fill-rule:nonzero;fill:rgb(93.333334%,24.313726%,32.941177%);fill-opacity:1;" d="M 13.5 43.5 C 13.5 44.050781 13.050781 44.5 12.5 44.5 C 11.949219 44.5 11.5 44.050781 11.5 43.5 C 11.5 42.949219 11.949219 42.5 12.5 42.5 C 13.050781 42.5 13.5 42.949219 13.5 43.5 Z M 13.5 43.5 "/>
<path style=" stroke:none;fill-rule:nonzero;fill:rgb(100%,100%,100%);fill-opacity:1;" d="M 10.5 26.75 C 10.5 27.441406 9.941406 28 9.25 28 C 8.558594 28 8 27.441406 8 26.75 C 8 26.058594 8.558594 25.5 9.25 25.5 C 9.941406 25.5 10.5 26.058594 10.5 26.75 Z M 10.5 26.75 "/>
<path style=" stroke:none;fill-rule:nonzero;fill:rgb(94.509804%,73.725492%,9.803922%);fill-opacity:1;" d="M 11 33.5 C 11 33.777344 10.777344 34 10.5 34 C 10.222656 34 10 33.777344 10 33.5 C 10 33.222656 10.222656 33 10.5 33 C 10.777344 33 11 33.222656 11 33.5 Z M 11 33.5 "/>
<path style=" stroke:none;fill-rule:nonzero;fill:rgb(100%,100%,100%);fill-opacity:1;" d="M 40.5 17 C 40.5 17.277344 40.277344 17.5 40 17.5 C 39.722656 17.5 39.5 17.277344 39.5 17 C 39.5 16.722656 39.722656 16.5 40 16.5 C 40.277344 16.5 40.5 16.722656 40.5 17 Z M 40.5 17 "/>
<path style=" stroke:none;fill-rule:nonzero;fill:rgb(19.607843%,19.215687%,78.039217%);fill-opacity:1;" d="M 36.148438 16.851562 L 36.148438 33.148438 C 36.148438 34.804688 34.804688 36.148438 33.148438 36.148438 L 16.851562 36.148438 C 15.195312 36.148438 13.851562 34.804688 13.851562 33.148438 L 13.851562 16.851562 C 13.851562 15.195312 15.195312 13.851562 16.851562 13.851562 L 33.148438 13.851562 C 34.804688 13.851562 36.148438 15.195312 36.148438 16.851562 Z M 36.148438 16.851562 "/>
<path style=" stroke:none;fill-rule:nonzero;fill:rgb(44.705883%,15.686275%,67.843139%);fill-opacity:1;" d="M 36.148438 24.019531 L 36.148438 33.148438 C 36.148438 34.804688 34.804688 36.148438 33.148438 36.148438 L 16.851562 36.148438 C 15.195312 36.148438 13.851562 34.804688 13.851562 33.148438 L 13.851562 16.851562 C 13.851562 15.195312 15.195312 13.851562 16.851562 13.851562 L 25.980469 13.851562 C 30.300781 16.144531 33.855469 19.699219 36.148438 24.019531 Z M 36.148438 24.019531 "/>
<path style=" stroke:none;fill-rule:nonzero;fill:rgb(69.411767%,11.764706%,57.647061%);fill-opacity:1;" d="M 35 35.5 C 35 35.503906 35 35.503906 35 35.511719 C 34.488281 35.910156 33.851562 36.148438 33.148438 36.148438 L 16.851562 36.148438 C 15.195312 36.148438 13.851562 34.804688 13.851562 33.148438 L 13.851562 16.851562 C 13.851562 16.148438 14.089844 15.511719 14.488281 15 C 14.496094 15 14.496094 15 14.5 15 C 25.820312 15 35 24.179688 35 35.5 Z M 35 35.5 "/>
<path style=" stroke:none;fill-rule:nonzero;fill:rgb(85.882354%,10.196079%,34.509805%);fill-opacity:1;" d="M 31 35.5 C 31 35.71875 30.996094 35.933594 30.984375 36.148438 L 16.851562 36.148438 C 15.195312 36.148438 13.851562 34.804688 13.851562 33.148438 L 13.851562 19.015625 C 14.066406 19.003906 14.28125 19 14.5 19 C 23.613281 19 31 26.386719 31 35.5 Z M 31 35.5 "/>
<path style=" stroke:none;fill-rule:nonzero;fill:rgb(89.411765%,15.294118%,24.313726%);fill-opacity:1;" d="M 27 35.5 C 27 35.714844 26.996094 35.933594 26.984375 36.148438 L 16.851562 36.148438 C 15.195312 36.148438 13.851562 34.804688 13.851562 33.148438 L 13.851562 23.015625 C 14.066406 23.003906 14.285156 23 14.5 23 C 21.40625 23 27 28.59375 27 35.5 Z M 27 35.5 "/>
<path style=" stroke:none;fill-rule:nonzero;fill:rgb(95.686275%,48.627451%,13.333334%);fill-opacity:1;" d="M 23.5 35.5 C 23.5 35.71875 23.488281 35.933594 23.476562 36.148438 L 16.851562 36.148438 C 15.195312 36.148438 13.851562 34.804688 13.851562 33.148438 L 13.851562 26.523438 C 14.066406 26.511719 14.28125 26.5 14.5 26.5 C 19.46875 26.5 23.5 30.53125 23.5 35.5 Z M 23.5 35.5 "/>
<path style=" stroke:none;fill-rule:nonzero;fill:rgb(93.725491%,60.000002%,13.333334%);fill-opacity:1;" d="M 20.5 35.5 C 20.5 35.71875 20.488281 35.933594 20.464844 36.148438 L 16.851562 36.148438 C 15.195312 36.148438 13.851562 34.804688 13.851562 33.148438 L 13.851562 29.535156 C 14.066406 29.511719 14.28125 29.5 14.5 29.5 C 17.816406 29.5 20.5 32.183594 20.5 35.5 Z M 20.5 35.5 "/>
<path style=" stroke:none;fill-rule:nonzero;fill:rgb(27.843139%,16.862746%,16.078432%);fill-opacity:1;" d="M 33.148438 36.5 L 16.851562 36.5 C 15.003906 36.5 13.5 34.996094 13.5 33.148438 L 13.5 16.851562 C 13.5 15.003906 15.003906 13.5 16.851562 13.5 L 33.148438 13.5 C 34.996094 13.5 36.5 15.003906 36.5 16.851562 L 36.5 33.148438 C 36.5 34.996094 34.996094 36.5 33.148438 36.5 Z M 16.851562 14.199219 C 15.386719 14.199219 14.199219 15.386719 14.199219 16.851562 L 14.199219 33.148438 C 14.199219 34.609375 15.386719 35.800781 16.851562 35.800781 L 33.148438 35.800781 C 34.613281 35.800781 35.800781 34.613281 35.800781 33.148438 L 35.800781 16.851562 C 35.800781 15.390625 34.613281 14.199219 33.148438 14.199219 Z M 16.851562 14.199219 "/>
<path style=" stroke:none;fill-rule:nonzero;fill:rgb(100%,100%,100%);fill-opacity:1;" d="M 24.996094 32.726562 C 23.003906 32.726562 22.261719 32.71875 21.507812 32.683594 C 20.8125 32.652344 20.273438 32.550781 19.753906 32.347656 C 19.25 32.152344 18.855469 31.898438 18.476562 31.515625 C 18.101562 31.140625 17.84375 30.746094 17.648438 30.242188 C 17.449219 29.738281 17.347656 29.195312 17.308594 28.488281 C 17.273438 27.726562 17.269531 26.984375 17.269531 25 C 17.269531 23.015625 17.273438 22.277344 17.308594 21.515625 C 17.339844 20.820312 17.445312 20.28125 17.648438 19.761719 C 17.84375 19.253906 18.101562 18.859375 18.476562 18.488281 C 18.855469 18.109375 19.246094 17.855469 19.753906 17.65625 C 20.273438 17.453125 20.8125 17.351562 21.507812 17.320312 C 22.289062 17.285156 23.039062 17.273438 24.996094 17.273438 C 26.953125 17.273438 27.699219 17.285156 28.476562 17.320312 C 29.171875 17.351562 29.714844 17.453125 30.230469 17.65625 C 30.742188 17.855469 31.136719 18.109375 31.507812 18.488281 C 31.882812 18.855469 32.136719 19.25 32.34375 19.761719 C 32.539062 20.285156 32.644531 20.828125 32.675781 21.515625 C 32.710938 22.304688 32.71875 23.054688 32.71875 25 C 32.71875 26.949219 32.710938 27.699219 32.675781 28.488281 C 32.644531 29.175781 32.539062 29.71875 32.34375 30.242188 C 32.136719 30.75 31.878906 31.144531 31.507812 31.515625 C 31.136719 31.890625 30.742188 32.148438 30.234375 32.347656 C 29.710938 32.546875 29.167969 32.652344 28.476562 32.683594 C 27.722656 32.71875 26.980469 32.726562 24.996094 32.726562 Z M 24.339844 18.726562 C 22.964844 18.726562 22.207031 18.734375 21.550781 18.765625 C 20.882812 18.796875 20.511719 18.90625 20.265625 19.003906 C 19.957031 19.125 19.734375 19.265625 19.5 19.5 C 19.269531 19.734375 19.125 19.953125 19.003906 20.257812 C 18.910156 20.507812 18.796875 20.878906 18.765625 21.550781 C 18.730469 22.304688 18.726562 23 18.726562 24.996094 C 18.726562 26.996094 18.730469 27.691406 18.765625 28.441406 C 18.796875 29.109375 18.910156 29.480469 19.003906 29.730469 C 19.125 30.039062 19.265625 30.257812 19.5 30.492188 C 19.734375 30.722656 19.957031 30.867188 20.265625 30.988281 C 20.503906 31.082031 20.867188 31.195312 21.550781 31.226562 C 22.332031 31.261719 23.070312 31.269531 24.996094 31.269531 C 26.925781 31.269531 27.664062 31.261719 28.445312 31.226562 C 29.144531 31.195312 29.515625 31.074219 29.734375 30.988281 C 30.035156 30.871094 30.257812 30.726562 30.492188 30.5 C 30.726562 30.261719 30.871094 30.039062 30.992188 29.730469 C 31.085938 29.488281 31.195312 29.121094 31.226562 28.445312 C 31.261719 27.65625 31.273438 26.917969 31.273438 24.996094 C 31.273438 23.078125 31.261719 22.339844 31.226562 21.550781 C 31.195312 20.875 31.085938 20.507812 30.992188 20.265625 C 30.875 19.957031 30.730469 19.738281 30.5 19.503906 C 30.25 19.261719 30.046875 19.128906 29.722656 19.007812 C 29.492188 18.914062 29.136719 18.800781 28.445312 18.769531 C 27.675781 18.734375 26.933594 18.726562 24.996094 18.726562 Z M 24.339844 18.726562 "/>
<path style=" stroke:none;fill-rule:nonzero;fill:rgb(27.843139%,16.862746%,16.078432%);fill-opacity:1;" d="M 24.996094 17.398438 C 26.949219 17.398438 27.699219 17.410156 28.472656 17.445312 C 29.152344 17.476562 29.679688 17.578125 30.1875 17.773438 C 30.679688 17.964844 31.058594 18.210938 31.421875 18.578125 C 31.78125 18.933594 32.027344 19.3125 32.222656 19.808594 C 32.417969 20.320312 32.519531 20.847656 32.550781 21.523438 C 32.585938 22.308594 32.59375 23.058594 32.59375 25 C 32.59375 26.945312 32.585938 27.695312 32.550781 28.484375 C 32.519531 29.15625 32.417969 29.6875 32.226562 30.191406 C 32.027344 30.6875 31.78125 31.070312 31.417969 31.429688 C 31.058594 31.792969 30.679688 32.039062 30.191406 32.230469 C 29.679688 32.425781 29.148438 32.53125 28.472656 32.558594 C 27.71875 32.59375 26.980469 32.601562 24.996094 32.601562 C 23.007812 32.601562 22.265625 32.59375 21.511719 32.558594 C 20.832031 32.53125 20.304688 32.429688 19.800781 32.230469 C 19.3125 32.042969 18.933594 31.796875 18.566406 31.429688 C 18.203125 31.066406 17.957031 30.683594 17.765625 30.195312 C 17.574219 29.703125 17.472656 29.175781 17.433594 28.484375 C 17.402344 27.722656 17.394531 26.984375 17.394531 25 C 17.394531 23.019531 17.402344 22.28125 17.433594 21.519531 C 17.464844 20.839844 17.566406 20.3125 17.765625 19.808594 C 17.957031 19.316406 18.203125 18.933594 18.566406 18.574219 C 18.929688 18.210938 19.3125 17.964844 19.800781 17.773438 C 20.304688 17.578125 20.832031 17.476562 21.511719 17.445312 C 22.292969 17.410156 23.039062 17.398438 24.996094 17.398438 M 24.996094 31.394531 C 26.925781 31.394531 27.667969 31.386719 28.449219 31.351562 C 29.171875 31.316406 29.554688 31.195312 29.777344 31.105469 C 30.097656 30.980469 30.328125 30.832031 30.582031 30.582031 C 30.824219 30.335938 30.976562 30.101562 31.109375 29.773438 C 31.203125 29.523438 31.316406 29.144531 31.351562 28.449219 C 31.386719 27.660156 31.394531 26.917969 31.394531 24.996094 C 31.394531 23.074219 31.386719 22.335938 31.351562 21.546875 C 31.316406 20.851562 31.203125 20.472656 31.109375 20.222656 C 30.984375 19.898438 30.828125 19.65625 30.585938 19.414062 C 30.324219 19.160156 30.105469 19.015625 29.773438 18.890625 C 29.527344 18.792969 29.160156 18.675781 28.449219 18.644531 C 27.679688 18.609375 26.9375 18.597656 24.996094 18.597656 L 24.339844 18.597656 C 22.960938 18.597656 22.203125 18.609375 21.546875 18.640625 C 20.859375 18.671875 20.476562 18.785156 20.21875 18.886719 C 19.898438 19.011719 19.65625 19.167969 19.414062 19.410156 C 19.167969 19.65625 19.011719 19.894531 18.886719 20.214844 C 18.789062 20.472656 18.671875 20.855469 18.640625 21.546875 C 18.605469 22.300781 18.597656 22.996094 18.597656 24.996094 C 18.597656 26.996094 18.605469 27.691406 18.640625 28.449219 C 18.671875 29.132812 18.789062 29.515625 18.886719 29.773438 C 19.011719 30.101562 19.164062 30.332031 19.410156 30.582031 C 19.65625 30.820312 19.898438 30.976562 20.21875 31.101562 C 20.464844 31.199219 20.839844 31.316406 21.546875 31.347656 C 22.328125 31.386719 23.070312 31.394531 24.996094 31.394531 M 24.996094 17.148438 C 23 17.148438 22.269531 17.160156 21.5 17.195312 C 20.792969 17.226562 20.238281 17.335938 19.710938 17.542969 C 19.183594 17.746094 18.777344 18.011719 18.390625 18.398438 C 18 18.785156 17.734375 19.191406 17.53125 19.71875 C 17.324219 20.25 17.214844 20.800781 17.183594 21.511719 C 17.152344 22.277344 17.144531 23.019531 17.144531 25 C 17.144531 26.984375 17.152344 27.726562 17.183594 28.496094 C 17.222656 29.214844 17.328125 29.769531 17.53125 30.285156 C 17.734375 30.808594 18 31.214844 18.390625 31.605469 C 18.78125 32 19.191406 32.261719 19.707031 32.464844 C 20.238281 32.671875 20.792969 32.777344 21.5 32.808594 C 22.269531 32.84375 23.011719 32.851562 24.996094 32.851562 C 26.976562 32.851562 27.714844 32.84375 28.484375 32.808594 C 29.191406 32.777344 29.742188 32.671875 30.28125 32.464844 C 30.808594 32.257812 31.210938 31.992188 31.597656 31.605469 C 31.980469 31.21875 32.246094 30.8125 32.460938 30.285156 C 32.664062 29.746094 32.769531 29.195312 32.800781 28.492188 C 32.835938 27.726562 32.847656 26.992188 32.847656 25 C 32.847656 23.011719 32.835938 22.277344 32.800781 21.511719 C 32.769531 20.808594 32.664062 20.257812 32.457031 19.71875 C 32.246094 19.1875 31.980469 18.78125 31.597656 18.398438 C 31.210938 18.007812 30.804688 17.746094 30.277344 17.539062 C 29.746094 17.332031 29.191406 17.226562 28.484375 17.195312 C 27.722656 17.160156 26.992188 17.148438 24.996094 17.148438 Z M 24.996094 31.144531 C 23.074219 31.144531 22.335938 31.136719 21.558594 31.101562 C 20.890625 31.070312 20.539062 30.960938 20.308594 30.871094 C 20.019531 30.757812 19.808594 30.621094 19.585938 30.402344 C 19.367188 30.183594 19.234375 29.980469 19.121094 29.683594 C 19.027344 29.445312 18.921875 29.085938 18.890625 28.4375 C 18.855469 27.691406 18.851562 26.996094 18.851562 24.996094 C 18.851562 22.996094 18.855469 22.304688 18.890625 21.558594 C 18.921875 20.902344 19.027344 20.542969 19.121094 20.304688 C 19.234375 20.015625 19.367188 19.808594 19.589844 19.589844 C 19.808594 19.367188 20.015625 19.234375 20.308594 19.117188 C 20.546875 19.027344 20.90625 18.917969 21.558594 18.890625 C 22.210938 18.859375 22.964844 18.851562 24.339844 18.851562 L 24.996094 18.851562 C 26.933594 18.851562 27.671875 18.859375 28.4375 18.894531 C 29.109375 18.925781 29.453125 19.03125 29.679688 19.121094 C 29.984375 19.238281 30.175781 19.363281 30.410156 19.59375 C 30.628906 19.808594 30.761719 20.019531 30.875 20.3125 C 30.964844 20.542969 31.070312 20.898438 31.101562 21.558594 C 31.136719 22.335938 31.144531 23.074219 31.144531 24.996094 C 31.144531 26.917969 31.136719 27.660156 31.101562 28.4375 C 31.070312 29.097656 30.964844 29.453125 30.875 29.683594 C 30.757812 29.976562 30.625 30.183594 30.402344 30.410156 C 30.179688 30.628906 29.976562 30.757812 29.6875 30.871094 C 29.476562 30.957031 29.121094 31.070312 28.4375 31.101562 C 27.660156 31.136719 26.921875 31.144531 24.996094 31.144531 Z M 24.996094 31.144531 "/>
<path style=" stroke:none;fill-rule:nonzero;fill:rgb(100%,100%,100%);fill-opacity:1;" d="M 29.25 21.625 C 28.765625 21.625 28.375 21.234375 28.375 20.75 C 28.375 20.265625 28.765625 19.875 29.25 19.875 C 29.484375 19.875 29.703125 19.964844 29.867188 20.132812 C 30.035156 20.296875 30.125 20.515625 30.125 20.75 C 30.125 21.234375 29.734375 21.625 29.25 21.625 Z M 29.25 21.625 "/>
<path style=" stroke:none;fill-rule:nonzero;fill:rgb(27.843139%,16.862746%,16.078432%);fill-opacity:1;" d="M 29.25 20 C 29.664062 20 30 20.335938 30 20.75 C 30 21.164062 29.664062 21.5 29.25 21.5 C 28.835938 21.5 28.5 21.164062 28.5 20.75 C 28.5 20.335938 28.835938 20 29.25 20 M 29.25 19.75 C 28.699219 19.75 28.25 20.199219 28.25 20.75 C 28.25 21.300781 28.699219 21.75 29.25 21.75 C 29.800781 21.75 30.25 21.300781 30.25 20.75 C 30.25 20.199219 29.800781 19.75 29.25 19.75 Z M 29.25 19.75 "/>
<path style=" stroke:none;fill-rule:nonzero;fill:rgb(100%,100%,100%);fill-opacity:1;" d="M 24.992188 20.753906 C 22.648438 20.753906 20.742188 22.65625 20.742188 25.003906 C 20.742188 27.351562 22.648438 29.253906 24.992188 29.253906 C 27.339844 29.253906 29.242188 27.347656 29.242188 25.003906 C 29.242188 22.65625 27.339844 20.753906 24.992188 20.753906 Z M 24.992188 22.253906 C 26.511719 22.253906 27.742188 23.484375 27.742188 25.003906 C 27.742188 26.519531 26.511719 27.753906 24.992188 27.753906 C 23.476562 27.753906 22.242188 26.519531 22.242188 25.003906 C 22.242188 23.484375 23.476562 22.253906 24.992188 22.253906 Z M 24.992188 22.253906 "/>
<path style=" stroke:none;fill-rule:nonzero;fill:rgb(27.843139%,16.862746%,16.078432%);fill-opacity:1;" d="M 24.992188 29.378906 C 22.582031 29.378906 20.617188 27.414062 20.617188 25.003906 C 20.617188 22.589844 22.582031 20.628906 24.992188 20.628906 C 27.40625 20.628906 29.367188 22.589844 29.367188 25.003906 C 29.367188 27.414062 27.40625 29.378906 24.992188 29.378906 Z M 24.992188 20.878906 C 22.71875 20.878906 20.867188 22.726562 20.867188 25.003906 C 20.867188 27.277344 22.71875 29.128906 24.992188 29.128906 C 27.269531 29.128906 29.117188 27.277344 29.117188 25.003906 C 29.117188 22.726562 27.269531 20.878906 24.992188 20.878906 Z M 24.992188 27.878906 C 23.410156 27.878906 22.117188 26.585938 22.117188 25.003906 C 22.117188 23.417969 23.410156 22.128906 24.992188 22.128906 C 26.578125 22.128906 27.867188 23.417969 27.867188 25.003906 C 27.867188 26.585938 26.578125 27.878906 24.992188 27.878906 Z M 24.992188 22.378906 C 23.546875 22.378906 22.367188 23.554688 22.367188 25.003906 C 22.367188 26.449219 23.546875 27.628906 24.992188 27.628906 C 26.441406 27.628906 27.617188 26.449219 27.617188 25.003906 C 27.617188 23.554688 26.441406 22.378906 24.992188 22.378906 Z M 24.992188 22.378906 "/>
</g>
</svg>
