<?xml version="1.0" encoding="UTF-8"?>
<svg xmlns="http://www.w3.org/2000/svg" xmlns:xlink="http://www.w3.org/1999/xlink" viewBox="0 0 50 50" width="50px" height="50px">
<g id="surface730449">
<path style=" stroke:none;fill-rule:nonzero;fill:rgb(97.254902%,47.843137%,99.215686%);fill-opacity:1;" d="M 6.5 13.5 C 5.949219 13.5 5.5 13.949219 5.5 14.5 C 5.5 15.050781 5.949219 15.5 6.5 15.5 C 7.050781 15.5 7.5 15.050781 7.5 14.5 C 7.5 13.949219 7.050781 13.5 6.5 13.5 Z M 6.5 13.5 "/>
<path style=" stroke:none;fill-rule:nonzero;fill:rgb(9.803922%,43.137255%,94.509804%);fill-opacity:1;" d="M 38.5 6 C 38.222656 6 38 6.222656 38 6.5 C 38 6.777344 38.222656 7 38.5 7 C 38.777344 7 39 6.777344 39 6.5 C 39 6.222656 38.777344 6 38.5 6 Z M 38.5 6 "/>
<path style=" stroke:none;fill-rule:nonzero;fill:rgb(84.313726%,90.980393%,100%);fill-opacity:1;" d="M 25 6.5 C 14.78125 6.5 6.5 14.78125 6.5 25 C 6.5 35.21875 14.78125 43.5 25 43.5 C 35.21875 43.5 43.5 35.21875 43.5 25 C 43.5 14.78125 35.21875 6.5 25 6.5 Z M 25 6.5 "/>
<path style=" stroke:none;fill-rule:nonzero;fill:rgb(9.803922%,43.137255%,94.509804%);fill-opacity:1;" d="M 41.5 5.5 C 40.394531 5.5 39.5 6.394531 39.5 7.5 C 39.5 8.605469 40.394531 9.5 41.5 9.5 C 42.605469 9.5 43.5 8.605469 43.5 7.5 C 43.5 6.394531 42.605469 5.5 41.5 5.5 Z M 41.5 5.5 "/>
<path style=" stroke:none;fill-rule:nonzero;fill:rgb(97.254902%,47.843137%,99.215686%);fill-opacity:1;" d="M 43.5 11 C 42.949219 11 42.5 11.449219 42.5 12 C 42.5 12.550781 42.949219 13 43.5 13 C 44.050781 13 44.5 12.550781 44.5 12 C 44.5 11.449219 44.050781 11 43.5 11 Z M 43.5 11 "/>
<path style=" stroke:none;fill-rule:nonzero;fill:rgb(0%,80.000001%,100%);fill-opacity:1;" d="M 40.5 37 C 39.949219 37 39.5 37.449219 39.5 38 C 39.5 38.550781 39.949219 39 40.5 39 C 41.050781 39 41.5 38.550781 41.5 38 C 41.5 37.449219 41.050781 37 40.5 37 Z M 7.5 29.5 C 6.394531 29.5 5.5 30.394531 5.5 31.5 C 5.5 32.605469 6.394531 33.5 7.5 33.5 C 8.605469 33.5 9.5 32.605469 9.5 31.5 C 9.5 30.394531 8.605469 29.5 7.5 29.5 Z M 7.5 29.5 "/>
<path style=" stroke:none;fill-rule:nonzero;fill:rgb(97.254902%,47.843137%,99.215686%);fill-opacity:1;" d="M 12.5 42.5 C 11.949219 42.5 11.5 42.949219 11.5 43.5 C 11.5 44.050781 11.949219 44.5 12.5 44.5 C 13.050781 44.5 13.5 44.050781 13.5 43.5 C 13.5 42.949219 13.050781 42.5 12.5 42.5 Z M 12.5 42.5 "/>
<path style=" stroke:none;fill-rule:nonzero;fill:rgb(100%,100%,100%);fill-opacity:1;" d="M 9.25 25.5 C 8.558594 25.5 8 26.058594 8 26.75 C 8 27.441406 8.558594 28 9.25 28 C 9.941406 28 10.5 27.441406 10.5 26.75 C 10.5 26.058594 9.941406 25.5 9.25 25.5 Z M 9.25 25.5 "/>
<path style=" stroke:none;fill-rule:nonzero;fill:rgb(9.803922%,43.137255%,94.509804%);fill-opacity:1;" d="M 10.5 33 C 10.222656 33 10 33.222656 10 33.5 C 10 33.777344 10.222656 34 10.5 34 C 10.777344 34 11 33.777344 11 33.5 C 11 33.222656 10.777344 33 10.5 33 Z M 10.5 33 "/>
<path style=" stroke:none;fill-rule:nonzero;fill:rgb(100%,100%,100%);fill-opacity:1;" d="M 40 16.5 C 39.722656 16.5 39.5 16.722656 39.5 17 C 39.5 17.277344 39.722656 17.5 40 17.5 C 40.277344 17.5 40.5 17.277344 40.5 17 C 40.5 16.722656 40.277344 16.5 40 16.5 Z M 40 16.5 "/>
<path style=" stroke:none;fill-rule:nonzero;fill:rgb(7.058824%,47.843137%,84.705883%);fill-opacity:1;" d="M 17.5 36.148438 C 15.5 36.148438 13.851562 34.5 13.851562 32.5 L 13.851562 17.5 C 13.851562 15.5 15.5 13.851562 17.5 13.851562 L 32.5 13.851562 C 34.5 13.851562 36.148438 15.5 36.148438 17.5 L 36.148438 32.5 C 36.148438 34.5 34.5 36.148438 32.5 36.148438 Z M 17.5 36.148438 "/>
<path style=" stroke:none;fill-rule:nonzero;fill:rgb(27.843139%,16.862746%,16.078432%);fill-opacity:1;" d="M 32.5 14.199219 C 34.300781 14.199219 35.800781 15.699219 35.800781 17.5 L 35.800781 32.5 C 35.800781 34.300781 34.300781 35.800781 32.5 35.800781 L 17.5 35.800781 C 15.699219 35.800781 14.199219 34.300781 14.199219 32.5 L 14.199219 17.5 C 14.199219 15.699219 15.699219 14.199219 17.5 14.199219 L 32.5 14.199219 M 32.5 13.5 L 17.5 13.5 C 15.300781 13.5 13.5 15.300781 13.5 17.5 L 13.5 32.5 C 13.5 34.699219 15.300781 36.5 17.5 36.5 L 32.5 36.5 C 34.699219 36.5 36.5 34.699219 36.5 32.5 L 36.5 17.5 C 36.5 15.300781 34.699219 13.5 32.5 13.5 Z M 32.5 13.5 "/>
<path style=" stroke:none;fill-rule:nonzero;fill:rgb(99.215686%,98.823529%,93.333334%);fill-opacity:1;" d="M 31.800781 34.25 L 18.25 34.25 C 16.898438 34.25 15.851562 33.148438 15.851562 31.851562 L 15.851562 18.148438 C 15.851562 16.800781 16.949219 15.75 18.25 15.75 L 31.800781 15.75 C 33.148438 15.75 34.199219 16.851562 34.199219 18.148438 L 34.199219 31.800781 C 34.199219 33.148438 33.148438 34.25 31.800781 34.25 Z M 31.800781 34.25 "/>
<path style=" stroke:none;fill-rule:nonzero;fill:rgb(27.843139%,16.862746%,16.078432%);fill-opacity:1;" d="M 34.25 23.699219 C 34.101562 23.699219 34 23.601562 34 23.449219 L 34 21.5 C 34 21.351562 34.101562 21.25 34.25 21.25 C 34.398438 21.25 34.5 21.351562 34.5 21.5 L 34.5 23.449219 C 34.5 23.601562 34.398438 23.699219 34.25 23.699219 Z M 34.25 23.699219 "/>
<path style=" stroke:none;fill-rule:nonzero;fill:rgb(27.843139%,16.862746%,16.078432%);fill-opacity:1;" d="M 34.25 20.25 C 34.101562 20.25 34 20.148438 34 20 L 34 19 C 34 18.851562 34.101562 18.75 34.25 18.75 C 34.398438 18.75 34.5 18.851562 34.5 19 L 34.5 20 C 34.5 20.148438 34.398438 20.25 34.25 20.25 Z M 34.25 20.25 "/>
<path style=" stroke:none;fill-rule:nonzero;fill:rgb(27.843139%,16.862746%,16.078432%);fill-opacity:1;" d="M 32 34.5 L 18 34.5 C 16.601562 34.5 15.5 33.398438 15.5 32 L 15.5 18 C 15.5 16.601562 16.601562 15.5 18 15.5 L 30.699219 15.5 C 30.851562 15.5 30.949219 15.601562 30.949219 15.75 C 30.949219 15.898438 30.851562 16 30.699219 16 L 18 16 C 16.898438 16 16 16.898438 16 18 L 16 32 C 16 33.101562 16.898438 34 18 34 L 32 34 C 33.101562 34 34 33.101562 34 32 L 34 24.800781 C 34 24.648438 34.101562 24.550781 34.25 24.550781 C 34.398438 24.550781 34.5 24.648438 34.5 24.800781 L 34.5 32 C 34.5 33.398438 33.398438 34.5 32 34.5 Z M 32 34.5 "/>
<path style=" stroke:none;fill-rule:nonzero;fill:rgb(7.058824%,47.843137%,84.705883%);fill-opacity:1;" d="M 30.25 25.800781 L 30.25 29.25 L 28.199219 29.25 L 28.148438 25.800781 C 28.148438 24.949219 27.75 24.300781 26.949219 24.300781 C 26.351562 24.300781 26 24.699219 25.851562 25.101562 C 25.800781 25.25 25.800781 25.449219 25.800781 25.601562 L 25.800781 29.199219 L 23.699219 29.199219 C 23.699219 29.199219 23.75 23.351562 23.699219 22.75 L 25.800781 22.75 L 25.800781 23.75 C 26.101562 23.25 26.601562 22.699219 27.75 22.699219 C 29.199219 22.75 30.25 23.648438 30.25 25.800781 Z M 30.25 25.800781 "/>
<path style=" stroke:none;fill-rule:nonzero;fill:rgb(27.843139%,16.862746%,16.078432%);fill-opacity:1;" d="M 30.25 29.5 L 28.199219 29.5 C 28.050781 29.5 27.949219 29.398438 27.949219 29.25 L 27.898438 25.800781 C 27.898438 25.449219 27.800781 24.550781 26.949219 24.550781 C 26.398438 24.550781 26.148438 25 26.050781 25.199219 C 26.050781 25.25 26 25.398438 26 25.648438 L 26 29.25 C 26 29.398438 25.898438 29.5 25.75 29.5 L 23.648438 29.5 C 23.601562 29.5 23.5 29.449219 23.449219 29.449219 C 23.398438 29.398438 23.398438 29.351562 23.398438 29.25 C 23.398438 29.199219 23.449219 23.398438 23.398438 22.800781 C 23.398438 22.75 23.398438 22.648438 23.449219 22.601562 C 23.5 22.550781 23.550781 22.5 23.648438 22.5 L 25.75 22.5 C 25.898438 22.5 26 22.601562 26 22.75 L 26 23.050781 C 26.449219 22.648438 27 22.449219 27.699219 22.449219 C 28.5 22.449219 29.101562 22.699219 29.601562 23.148438 C 30.148438 23.699219 30.449219 24.601562 30.449219 25.75 L 30.449219 29.199219 C 30.5 29.398438 30.398438 29.5 30.25 29.5 Z M 28.449219 29 L 30 29 L 30 25.800781 C 30 24.800781 29.75 24.050781 29.300781 23.550781 C 28.949219 23.199219 28.398438 23 27.800781 23 C 26.75 23 26.300781 23.5 26.050781 23.898438 C 25.949219 24.101562 25.699219 24.101562 25.601562 23.949219 C 25.550781 23.898438 25.550781 23.800781 25.601562 23.75 L 25.601562 23.050781 L 24 23.050781 C 24 24.148438 24 28 24 29 L 25.601562 29 L 25.601562 25.648438 C 25.601562 25.398438 25.648438 25.199219 25.699219 25.050781 C 25.949219 24.449219 26.449219 24.101562 27.050781 24.101562 C 27.949219 24.101562 28.5 24.75 28.5 25.851562 Z M 28.449219 29 "/>
<path style=" stroke:none;fill-rule:nonzero;fill:rgb(7.058824%,47.843137%,84.705883%);fill-opacity:1;" d="M 21.199219 19.898438 C 20.601562 19.898438 20.199219 20.300781 20.199219 20.898438 C 20.199219 21.449219 20.601562 21.898438 21.199219 21.898438 C 21.851562 21.898438 22.199219 21.449219 22.199219 20.898438 C 22.199219 20.300781 21.800781 19.898438 21.199219 19.898438 Z M 21.199219 19.898438 "/>
<path style=" stroke:none;fill-rule:nonzero;fill:rgb(27.843139%,16.862746%,16.078432%);fill-opacity:1;" d="M 21.199219 22.101562 C 20.449219 22.101562 19.949219 21.601562 19.949219 20.851562 C 19.949219 20.101562 20.5 19.601562 21.199219 19.601562 C 21.898438 19.601562 22.449219 20.101562 22.449219 20.800781 C 22.449219 21.601562 21.898438 22.101562 21.199219 22.101562 Z M 21.199219 20.148438 C 20.75 20.148438 20.449219 20.449219 20.449219 20.898438 C 20.449219 21.351562 20.75 21.648438 21.199219 21.648438 C 21.648438 21.648438 22 21.351562 22 20.898438 C 21.949219 20.449219 21.648438 20.148438 21.199219 20.148438 Z M 21.199219 20.148438 "/>
<path style=" stroke:none;fill-rule:nonzero;fill:rgb(7.058824%,47.843137%,84.705883%);fill-opacity:1;" d="M 20.199219 22.800781 L 22.300781 22.800781 L 22.300781 29.25 L 20.199219 29.25 Z M 20.199219 22.800781 "/>
<path style=" stroke:none;fill-rule:nonzero;fill:rgb(27.843139%,16.862746%,16.078432%);fill-opacity:1;" d="M 22.300781 29.5 L 20.199219 29.5 C 20.050781 29.5 19.949219 29.398438 19.949219 29.25 L 19.949219 22.800781 C 19.949219 22.648438 20.050781 22.550781 20.199219 22.550781 L 22.300781 22.550781 C 22.449219 22.550781 22.550781 22.648438 22.550781 22.800781 L 22.550781 29.25 C 22.550781 29.398438 22.449219 29.5 22.300781 29.5 Z M 20.449219 29 L 22.050781 29 L 22.050781 23.050781 L 20.449219 23.050781 Z M 20.449219 29 "/>
</g>
</svg>
