<?xml version="1.0" encoding="UTF-8"?>
<svg xmlns="http://www.w3.org/2000/svg" xmlns:xlink="http://www.w3.org/1999/xlink" viewBox="0 0 50 50" width="50px" height="50px">
<g id="surface766521">
<path style=" stroke:none;fill-rule:nonzero;fill:rgb(94.509804%,76.862746%,5.882353%);fill-opacity:1;" d="M 39 6.5 C 39 6.777344 38.777344 7 38.5 7 C 38.222656 7 38 6.777344 38 6.5 C 38 6.222656 38.222656 6 38.5 6 C 38.777344 6 39 6.222656 39 6.5 Z M 39 6.5 "/>
<path style=" stroke:none;fill-rule:nonzero;fill:rgb(80.000001%,80.000001%,80.000001%);fill-opacity:1;" d="M 43.5 25 C 43.5 35.21875 35.21875 43.5 25 43.5 C 14.78125 43.5 6.5 35.21875 6.5 25 C 6.5 14.78125 14.78125 6.5 25 6.5 C 35.21875 6.5 43.5 14.78125 43.5 25 Z M 43.5 25 "/>
<path style=" stroke:none;fill-rule:nonzero;fill:rgb(94.509804%,76.862746%,5.882353%);fill-opacity:1;" d="M 43.5 7.5 C 43.5 8.605469 42.605469 9.5 41.5 9.5 C 40.394531 9.5 39.5 8.605469 39.5 7.5 C 39.5 6.394531 40.394531 5.5 41.5 5.5 C 42.605469 5.5 43.5 6.394531 43.5 7.5 Z M 43.5 7.5 "/>
<path style=" stroke:none;fill-rule:nonzero;fill:rgb(20.392157%,59.607846%,85.882354%);fill-opacity:1;" d="M 44.5 12 C 44.5 12.550781 44.050781 13 43.5 13 C 42.949219 13 42.5 12.550781 42.5 12 C 42.5 11.449219 42.949219 11 43.5 11 C 44.050781 11 44.5 11.449219 44.5 12 Z M 44.5 12 "/>
<path style=" stroke:none;fill-rule:nonzero;fill:rgb(90.196079%,49.411765%,13.333334%);fill-opacity:1;" d="M 41.5 38 C 41.5 38.550781 41.050781 39 40.5 39 C 39.949219 39 39.5 38.550781 39.5 38 C 39.5 37.449219 39.949219 37 40.5 37 C 41.050781 37 41.5 37.449219 41.5 38 Z M 41.5 38 "/>
<path style=" stroke:none;fill-rule:nonzero;fill:rgb(90.196079%,49.411765%,13.333334%);fill-opacity:1;" d="M 9.5 12 C 9.5 13.105469 8.605469 14 7.5 14 C 6.394531 14 5.5 13.105469 5.5 12 C 5.5 10.894531 6.394531 10 7.5 10 C 8.605469 10 9.5 10.894531 9.5 12 Z M 9.5 12 "/>
<path style=" stroke:none;fill-rule:nonzero;fill:rgb(20.392157%,59.607846%,85.882354%);fill-opacity:1;" d="M 13.5 43.5 C 13.5 44.050781 13.050781 44.5 12.5 44.5 C 11.949219 44.5 11.5 44.050781 11.5 43.5 C 11.5 42.949219 11.949219 42.5 12.5 42.5 C 13.050781 42.5 13.5 42.949219 13.5 43.5 Z M 13.5 43.5 "/>
<path style=" stroke:none;fill-rule:nonzero;fill:rgb(100%,100%,100%);fill-opacity:1;" d="M 14 14.75 C 14 15.441406 13.441406 16 12.75 16 C 12.058594 16 11.5 15.441406 11.5 14.75 C 11.5 14.058594 12.058594 13.5 12.75 13.5 C 13.441406 13.5 14 14.058594 14 14.75 Z M 14 14.75 "/>
<path style=" stroke:none;fill-rule:nonzero;fill:rgb(100%,100%,100%);fill-opacity:1;" d="M 40.5 16.75 C 40.5 17.164062 40.164062 17.5 39.75 17.5 C 39.335938 17.5 39 17.164062 39 16.75 C 39 16.335938 39.335938 16 39.75 16 C 40.164062 16 40.5 16.335938 40.5 16.75 Z M 40.5 16.75 "/>
<path style=" stroke:none;fill-rule:nonzero;fill:rgb(90.588236%,29.803923%,23.529412%);fill-opacity:1;" d="M 22.644531 31.132812 L 36.621094 31.132812 C 39.007812 31.132812 40.945312 29.21875 40.945312 26.859375 C 40.945312 24.5 39.007812 22.585938 36.621094 22.585938 C 35.902344 22.585938 35.226562 22.761719 34.628906 23.070312 C 34.640625 22.910156 34.65625 22.75 34.65625 22.585938 C 34.65625 19.15625 31.839844 16.371094 28.363281 16.371094 C 25.976562 16.371094 23.726562 17.550781 22.644531 19.472656 C 22.644531 19.472656 22.644531 31.132812 22.644531 31.132812 Z M 22.644531 31.132812 "/>
<path style=" stroke:none;fill-rule:nonzero;fill:rgb(27.843139%,16.862746%,16.078432%);fill-opacity:1;" d="M 21.050781 31.503906 C 20.855469 31.503906 20.699219 31.34375 20.699219 31.152344 L 20.699219 19.398438 C 20.699219 19.207031 20.855469 19.050781 21.050781 19.050781 C 21.242188 19.050781 21.398438 19.207031 21.398438 19.398438 L 21.398438 31.152344 C 21.398438 31.34375 21.242188 31.503906 21.050781 31.503906 Z M 21.050781 31.503906 "/>
<path style=" stroke:none;fill-rule:nonzero;fill:rgb(27.843139%,16.862746%,16.078432%);fill-opacity:1;" d="M 19.476562 31.503906 C 19.28125 31.503906 19.125 31.34375 19.125 31.152344 L 19.125 18.898438 C 19.125 18.707031 19.28125 18.550781 19.476562 18.550781 C 19.667969 18.550781 19.824219 18.707031 19.824219 18.898438 L 19.824219 31.152344 C 19.824219 31.34375 19.667969 31.503906 19.476562 31.503906 Z M 19.476562 31.503906 "/>
<path style=" stroke:none;fill-rule:nonzero;fill:rgb(27.843139%,16.862746%,16.078432%);fill-opacity:1;" d="M 17.902344 31.503906 C 17.707031 31.503906 17.550781 31.34375 17.550781 31.152344 L 17.550781 19.851562 C 17.550781 19.65625 17.707031 19.5 17.902344 19.5 C 18.09375 19.5 18.25 19.65625 18.25 19.851562 L 18.25 31.152344 C 18.25 31.34375 18.09375 31.503906 17.902344 31.503906 Z M 17.902344 31.503906 "/>
<path style=" stroke:none;fill-rule:nonzero;fill:rgb(27.843139%,16.862746%,16.078432%);fill-opacity:1;" d="M 16.328125 31.503906 C 16.132812 31.503906 15.976562 31.34375 15.976562 31.152344 L 15.976562 20.898438 C 15.976562 20.707031 16.132812 20.550781 16.328125 20.550781 C 16.519531 20.550781 16.675781 20.707031 16.675781 20.898438 L 16.675781 31.152344 C 16.675781 31.34375 16.519531 31.503906 16.328125 31.503906 Z M 16.328125 31.503906 "/>
<path style=" stroke:none;fill-rule:nonzero;fill:rgb(27.843139%,16.862746%,16.078432%);fill-opacity:1;" d="M 14.753906 31.503906 C 14.558594 31.503906 14.402344 31.34375 14.402344 31.152344 L 14.402344 22.488281 C 14.402344 22.292969 14.558594 22.136719 14.753906 22.136719 C 14.945312 22.136719 15.101562 22.292969 15.101562 22.488281 L 15.101562 31.152344 C 15.101562 31.34375 14.945312 31.503906 14.753906 31.503906 Z M 14.753906 31.503906 "/>
<path style=" stroke:none;fill-rule:nonzero;fill:rgb(27.843139%,16.862746%,16.078432%);fill-opacity:1;" d="M 13.179688 31.503906 C 12.984375 31.503906 12.828125 31.34375 12.828125 31.152344 L 12.828125 22.441406 C 12.828125 22.246094 12.984375 22.089844 13.179688 22.089844 C 13.371094 22.089844 13.527344 22.246094 13.527344 22.441406 L 13.527344 31.152344 C 13.527344 31.34375 13.371094 31.503906 13.179688 31.503906 Z M 13.179688 31.503906 "/>
<path style=" stroke:none;fill-rule:nonzero;fill:rgb(27.843139%,16.862746%,16.078432%);fill-opacity:1;" d="M 11.605469 30.714844 C 11.410156 30.714844 11.253906 30.558594 11.253906 30.363281 L 11.253906 23.042969 C 11.253906 22.851562 11.410156 22.695312 11.605469 22.695312 C 11.796875 22.695312 11.953125 22.851562 11.953125 23.042969 L 11.953125 30.363281 C 11.953125 30.558594 11.796875 30.714844 11.605469 30.714844 Z M 11.605469 30.714844 "/>
<path style=" stroke:none;fill-rule:nonzero;fill:rgb(27.843139%,16.862746%,16.078432%);fill-opacity:1;" d="M 10.03125 29.5 C 9.835938 29.5 9.679688 29.34375 9.679688 29.148438 L 9.679688 24.898438 C 9.679688 24.707031 9.835938 24.550781 10.03125 24.550781 C 10.222656 24.550781 10.378906 24.707031 10.378906 24.898438 L 10.378906 29.148438 C 10.378906 29.34375 10.222656 29.5 10.03125 29.5 Z M 10.03125 29.5 "/>
<path style=" stroke:none;fill-rule:nonzero;fill:rgb(27.843139%,16.862746%,16.078432%);fill-opacity:1;" d="M 31.75 29.5 L 24.25 29.5 C 24.113281 29.5 24 29.386719 24 29.25 C 24 29.113281 24.113281 29 24.25 29 L 31.75 29 C 31.886719 29 32 29.113281 32 29.25 C 32 29.386719 31.886719 29.5 31.75 29.5 Z M 31.75 29.5 "/>
<path style=" stroke:none;fill-rule:nonzero;fill:rgb(27.843139%,16.862746%,16.078432%);fill-opacity:1;" d="M 34.25 29.5 L 33.25 29.5 C 33.113281 29.5 33 29.386719 33 29.25 C 33 29.113281 33.113281 29 33.25 29 L 34.25 29 C 34.386719 29 34.5 29.113281 34.5 29.25 C 34.5 29.386719 34.386719 29.5 34.25 29.5 Z M 34.25 29.5 "/>
<path style=" stroke:none;fill-rule:nonzero;fill:rgb(27.843139%,16.862746%,16.078432%);fill-opacity:1;" d="M 37.25 29.5 L 35.75 29.5 C 35.613281 29.5 35.5 29.386719 35.5 29.25 C 35.5 29.113281 35.613281 29 35.75 29 L 37.25 29 C 37.386719 29 37.5 29.113281 37.5 29.25 C 37.5 29.386719 37.386719 29.5 37.25 29.5 Z M 37.25 29.5 "/>
<path style=" stroke:none;fill-rule:nonzero;fill:rgb(27.843139%,16.862746%,16.078432%);fill-opacity:1;" d="M 36.621094 31.484375 L 22.644531 31.484375 C 22.449219 31.484375 22.292969 31.324219 22.292969 31.132812 L 22.292969 19.472656 C 22.292969 19.414062 22.308594 19.351562 22.339844 19.300781 C 23.460938 17.308594 25.824219 16.023438 28.363281 16.023438 C 32.003906 16.023438 34.96875 18.933594 35.003906 22.523438 C 35.519531 22.332031 36.0625 22.238281 36.621094 22.238281 C 39.199219 22.238281 41.296875 24.3125 41.296875 26.859375 C 41.296875 29.410156 39.199219 31.484375 36.621094 31.484375 Z M 22.992188 30.78125 L 36.621094 30.78125 C 38.8125 30.78125 40.59375 29.023438 40.59375 26.859375 C 40.59375 24.695312 38.8125 22.9375 36.621094 22.9375 C 35.980469 22.9375 35.363281 23.085938 34.789062 23.382812 C 34.679688 23.4375 34.542969 23.429688 34.4375 23.359375 C 34.332031 23.289062 34.273438 23.167969 34.28125 23.042969 C 34.292969 22.890625 34.304688 22.742188 34.304688 22.585938 C 34.304688 19.355469 31.640625 16.722656 28.363281 16.722656 C 26.109375 16.722656 24.011719 17.835938 22.992188 19.566406 Z M 22.992188 30.78125 "/>
</g>
</svg>
