<?xml version="1.0" encoding="UTF-8"?>
<svg xmlns="http://www.w3.org/2000/svg" xmlns:xlink="http://www.w3.org/1999/xlink" viewBox="0 0 50 50" width="50px" height="50px">
<g id="surface758573">
<path style=" stroke:none;fill-rule:nonzero;fill:rgb(93.333334%,24.313726%,32.941177%);fill-opacity:1;" d="M 6.5 13.5 C 5.949219 13.5 5.5 13.949219 5.5 14.5 C 5.5 15.050781 5.949219 15.5 6.5 15.5 C 7.050781 15.5 7.5 15.050781 7.5 14.5 C 7.5 13.949219 7.050781 13.5 6.5 13.5 Z M 6.5 13.5 "/>
<path style=" stroke:none;fill-rule:nonzero;fill:rgb(34.901962%,94.509804%,9.803922%);fill-opacity:1;" d="M 38.5 6 C 38.222656 6 38 6.222656 38 6.5 C 38 6.777344 38.222656 7 38.5 7 C 38.777344 7 39 6.777344 39 6.5 C 39 6.222656 38.777344 6 38.5 6 Z M 38.5 6 "/>
<path style=" stroke:none;fill-rule:nonzero;fill:rgb(81.176472%,80.392158%,100%);fill-opacity:1;" d="M 25 6.5 C 14.78125 6.5 6.5 14.78125 6.5 25 C 6.5 35.21875 14.78125 43.5 25 43.5 C 35.21875 43.5 43.5 35.21875 43.5 25 C 43.5 14.78125 35.21875 6.5 25 6.5 Z M 25 6.5 "/>
<path style=" stroke:none;fill-rule:nonzero;fill:rgb(34.901962%,94.509804%,9.803922%);fill-opacity:1;" d="M 41.5 5.5 C 40.394531 5.5 39.5 6.394531 39.5 7.5 C 39.5 8.605469 40.394531 9.5 41.5 9.5 C 42.605469 9.5 43.5 8.605469 43.5 7.5 C 43.5 6.394531 42.605469 5.5 41.5 5.5 Z M 41.5 5.5 "/>
<path style=" stroke:none;fill-rule:nonzero;fill:rgb(93.333334%,24.313726%,32.941177%);fill-opacity:1;" d="M 43.5 11 C 42.949219 11 42.5 11.449219 42.5 12 C 42.5 12.550781 42.949219 13 43.5 13 C 44.050781 13 44.5 12.550781 44.5 12 C 44.5 11.449219 44.050781 11 43.5 11 Z M 43.5 11 "/>
<path style=" stroke:none;fill-rule:nonzero;fill:rgb(34.901962%,43.529412%,98.431373%);fill-opacity:1;" d="M 40.5 37 C 39.949219 37 39.5 37.449219 39.5 38 C 39.5 38.550781 39.949219 39 40.5 39 C 41.050781 39 41.5 38.550781 41.5 38 C 41.5 37.449219 41.050781 37 40.5 37 Z M 7.5 29.5 C 6.394531 29.5 5.5 30.394531 5.5 31.5 C 5.5 32.605469 6.394531 33.5 7.5 33.5 C 8.605469 33.5 9.5 32.605469 9.5 31.5 C 9.5 30.394531 8.605469 29.5 7.5 29.5 Z M 7.5 29.5 "/>
<path style=" stroke:none;fill-rule:nonzero;fill:rgb(93.333334%,24.313726%,32.941177%);fill-opacity:1;" d="M 12.5 42.5 C 11.949219 42.5 11.5 42.949219 11.5 43.5 C 11.5 44.050781 11.949219 44.5 12.5 44.5 C 13.050781 44.5 13.5 44.050781 13.5 43.5 C 13.5 42.949219 13.050781 42.5 12.5 42.5 Z M 12.5 42.5 "/>
<path style=" stroke:none;fill-rule:nonzero;fill:rgb(100%,100%,100%);fill-opacity:1;" d="M 9.25 25.5 C 8.558594 25.5 8 26.058594 8 26.75 C 8 27.441406 8.558594 28 9.25 28 C 9.941406 28 10.5 27.441406 10.5 26.75 C 10.5 26.058594 9.941406 25.5 9.25 25.5 Z M 9.25 25.5 "/>
<path style=" stroke:none;fill-rule:nonzero;fill:rgb(34.901962%,94.509804%,9.803922%);fill-opacity:1;" d="M 10.5 33 C 10.222656 33 10 33.222656 10 33.5 C 10 33.777344 10.222656 34 10.5 34 C 10.777344 34 11 33.777344 11 33.5 C 11 33.222656 10.777344 33 10.5 33 Z M 10.5 33 "/>
<path style=" stroke:none;fill-rule:nonzero;fill:rgb(100%,100%,100%);fill-opacity:1;" d="M 40 16.5 C 39.722656 16.5 39.5 16.722656 39.5 17 C 39.5 17.277344 39.722656 17.5 40 17.5 C 40.277344 17.5 40.5 17.277344 40.5 17 C 40.5 16.722656 40.277344 16.5 40 16.5 Z M 40 16.5 "/>
<path style=" stroke:none;fill-rule:nonzero;fill:rgb(37.64706%,74.509805%,43.529412%);fill-opacity:1;" d="M 25 12.8125 C 18.304688 12.8125 12.875 18.242188 12.875 24.9375 C 12.875 31.632812 18.304688 37.0625 25 37.0625 C 31.695312 37.0625 37.125 31.632812 37.125 24.9375 C 37.125 18.242188 31.695312 12.8125 25 12.8125 Z M 25 12.8125 "/>
<path style=" stroke:none;fill-rule:nonzero;fill:rgb(27.843139%,16.862746%,16.078432%);fill-opacity:1;" d="M 25 37.414062 C 18.121094 37.414062 12.523438 31.816406 12.523438 24.9375 C 12.523438 18.058594 18.121094 12.460938 25 12.460938 C 31.878906 12.460938 37.476562 18.058594 37.476562 24.9375 C 37.476562 31.816406 31.878906 37.414062 25 37.414062 Z M 25 13.164062 C 18.507812 13.164062 13.226562 18.445312 13.226562 24.9375 C 13.226562 31.429688 18.507812 36.710938 25 36.710938 C 31.492188 36.710938 36.773438 31.429688 36.773438 24.9375 C 36.773438 18.445312 31.492188 13.164062 25 13.164062 Z M 25 13.164062 "/>
<path style=" stroke:none;fill-rule:nonzero;fill:rgb(27.843139%,16.862746%,16.078432%);fill-opacity:1;" d="M 34.710938 22.3125 C 34.605469 22.3125 34.507812 22.242188 34.472656 22.136719 C 34.429688 21.992188 34.382812 21.851562 34.332031 21.710938 C 34.136719 21.160156 33.886719 20.628906 33.597656 20.125 C 33.527344 20.003906 33.566406 19.851562 33.6875 19.78125 C 33.804688 19.710938 33.960938 19.753906 34.027344 19.875 C 34.335938 20.40625 34.59375 20.964844 34.800781 21.539062 C 34.855469 21.6875 34.90625 21.835938 34.949219 21.988281 C 34.992188 22.121094 34.917969 22.261719 34.785156 22.300781 C 34.761719 22.308594 34.734375 22.3125 34.710938 22.3125 Z M 34.710938 22.3125 "/>
<path style=" stroke:none;fill-rule:nonzero;fill:rgb(27.843139%,16.862746%,16.078432%);fill-opacity:1;" d="M 25 35.375 C 19.246094 35.375 14.5625 30.707031 14.5625 24.96875 C 14.5625 19.230469 19.246094 14.5625 25 14.5625 C 27.988281 14.5625 30.835938 15.84375 32.816406 18.074219 C 32.96875 18.242188 33.113281 18.417969 33.25 18.59375 C 33.335938 18.703125 33.316406 18.859375 33.207031 18.945312 C 33.097656 19.03125 32.941406 19.011719 32.855469 18.902344 C 32.722656 18.730469 32.585938 18.566406 32.445312 18.40625 C 30.558594 16.28125 27.84375 15.0625 25 15.0625 C 19.519531 15.0625 15.0625 19.507812 15.0625 24.96875 C 15.0625 30.429688 19.519531 34.875 25 34.875 C 30.480469 34.875 34.9375 30.429688 34.9375 24.96875 C 34.9375 24.472656 34.898438 23.96875 34.828125 23.480469 C 34.804688 23.347656 34.898438 23.21875 35.035156 23.199219 C 35.175781 23.179688 35.300781 23.273438 35.320312 23.40625 C 35.398438 23.921875 35.4375 24.445312 35.4375 24.96875 C 35.4375 30.707031 30.753906 35.375 25 35.375 Z M 25 35.375 "/>
<path style=" stroke:none;fill-rule:nonzero;fill:rgb(100%,100%,100%);fill-opacity:1;" d="M 32.191406 24.324219 C 32 24.324219 31.804688 24.277344 31.621094 24.179688 C 26.152344 21.179688 18.761719 22.878906 18.6875 22.894531 C 18.050781 23.046875 17.414062 22.652344 17.265625 22.015625 C 17.113281 21.378906 17.507812 20.742188 18.144531 20.59375 C 18.484375 20.511719 26.5 18.671875 32.761719 22.105469 C 33.332031 22.417969 33.542969 23.136719 33.230469 23.710938 C 33.015625 24.101562 32.609375 24.324219 32.191406 24.324219 Z M 30.878906 27.957031 C 30.714844 27.957031 30.546875 27.914062 30.394531 27.824219 C 25.402344 24.855469 19.273438 26.507812 19.214844 26.527344 C 18.707031 26.664062 18.1875 26.371094 18.046875 25.867188 C 17.90625 25.363281 18.199219 24.84375 18.703125 24.703125 C 18.984375 24.625 25.660156 22.808594 31.363281 26.199219 C 31.8125 26.464844 31.960938 27.046875 31.691406 27.496094 C 31.515625 27.792969 31.203125 27.957031 30.878906 27.957031 Z M 29.679688 31.09375 C 29.558594 31.09375 29.433594 31.0625 29.320312 30.992188 C 24.847656 28.335938 19.40625 29.820312 19.351562 29.835938 C 18.972656 29.941406 18.582031 29.71875 18.472656 29.34375 C 18.367188 28.964844 18.589844 28.574219 18.964844 28.464844 C 19.214844 28.398438 25.058594 26.804688 30.046875 29.773438 C 30.382812 29.972656 30.492188 30.410156 30.292969 30.746094 C 30.160156 30.96875 29.921875 31.09375 29.679688 31.09375 Z M 29.679688 31.09375 "/>
</g>
</svg>
