<?xml version="1.0" encoding="UTF-8"?>
<svg xmlns="http://www.w3.org/2000/svg" xmlns:xlink="http://www.w3.org/1999/xlink" viewBox="0 0 50 50" width="50px" height="50px">
<g id="surface736499">
<path style=" stroke:none;fill-rule:nonzero;fill:rgb(51.764709%,0%,100%);fill-opacity:1;" d="M 6.5 13.5 C 5.949219 13.5 5.5 13.949219 5.5 14.5 C 5.5 15.050781 5.949219 15.5 6.5 15.5 C 7.050781 15.5 7.5 15.050781 7.5 14.5 C 7.5 13.949219 7.050781 13.5 6.5 13.5 Z M 6.5 13.5 "/>
<path style=" stroke:none;fill-rule:nonzero;fill:rgb(94.509804%,9.803922%,58.823532%);fill-opacity:1;" d="M 38.5 6 C 38.222656 6 38 6.222656 38 6.5 C 38 6.777344 38.222656 7 38.5 7 C 38.777344 7 39 6.777344 39 6.5 C 39 6.222656 38.777344 6 38.5 6 Z M 38.5 6 "/>
<path style=" stroke:none;fill-rule:nonzero;fill:rgb(89.019608%,66.666669%,100%);fill-opacity:1;" d="M 25 6.5 C 14.78125 6.5 6.5 14.78125 6.5 25 C 6.5 35.21875 14.78125 43.5 25 43.5 C 35.21875 43.5 43.5 35.21875 43.5 25 C 43.5 14.78125 35.21875 6.5 25 6.5 Z M 25 6.5 "/>
<path style=" stroke:none;fill-rule:nonzero;fill:rgb(94.509804%,9.803922%,58.823532%);fill-opacity:1;" d="M 41.5 5.5 C 40.394531 5.5 39.5 6.394531 39.5 7.5 C 39.5 8.605469 40.394531 9.5 41.5 9.5 C 42.605469 9.5 43.5 8.605469 43.5 7.5 C 43.5 6.394531 42.605469 5.5 41.5 5.5 Z M 41.5 5.5 "/>
<path style=" stroke:none;fill-rule:nonzero;fill:rgb(51.764709%,0%,100%);fill-opacity:1;" d="M 43.5 11 C 42.949219 11 42.5 11.449219 42.5 12 C 42.5 12.550781 42.949219 13 43.5 13 C 44.050781 13 44.5 12.550781 44.5 12 C 44.5 11.449219 44.050781 11 43.5 11 Z M 43.5 11 "/>
<path style=" stroke:none;fill-rule:nonzero;fill:rgb(34.901962%,96.470588%,98.431373%);fill-opacity:1;" d="M 40.5 37 C 39.949219 37 39.5 37.449219 39.5 38 C 39.5 38.550781 39.949219 39 40.5 39 C 41.050781 39 41.5 38.550781 41.5 38 C 41.5 37.449219 41.050781 37 40.5 37 Z M 7.5 29.5 C 6.394531 29.5 5.5 30.394531 5.5 31.5 C 5.5 32.605469 6.394531 33.5 7.5 33.5 C 8.605469 33.5 9.5 32.605469 9.5 31.5 C 9.5 30.394531 8.605469 29.5 7.5 29.5 Z M 7.5 29.5 "/>
<path style=" stroke:none;fill-rule:nonzero;fill:rgb(51.764709%,0%,100%);fill-opacity:1;" d="M 12.5 42.5 C 11.949219 42.5 11.5 42.949219 11.5 43.5 C 11.5 44.050781 11.949219 44.5 12.5 44.5 C 13.050781 44.5 13.5 44.050781 13.5 43.5 C 13.5 42.949219 13.050781 42.5 12.5 42.5 Z M 12.5 42.5 "/>
<path style=" stroke:none;fill-rule:nonzero;fill:rgb(100%,100%,100%);fill-opacity:1;" d="M 9.25 25.5 C 8.558594 25.5 8 26.058594 8 26.75 C 8 27.441406 8.558594 28 9.25 28 C 9.941406 28 10.5 27.441406 10.5 26.75 C 10.5 26.058594 9.941406 25.5 9.25 25.5 Z M 9.25 25.5 "/>
<path style=" stroke:none;fill-rule:nonzero;fill:rgb(94.509804%,9.803922%,58.823532%);fill-opacity:1;" d="M 10.5 33 C 10.222656 33 10 33.222656 10 33.5 C 10 33.777344 10.222656 34 10.5 34 C 10.777344 34 11 33.777344 11 33.5 C 11 33.222656 10.777344 33 10.5 33 Z M 10.5 33 "/>
<path style=" stroke:none;fill-rule:nonzero;fill:rgb(100%,100%,100%);fill-opacity:1;" d="M 40 16.5 C 39.722656 16.5 39.5 16.722656 39.5 17 C 39.5 17.277344 39.722656 17.5 40 17.5 C 40.277344 17.5 40.5 17.277344 40.5 17 C 40.5 16.722656 40.277344 16.5 40 16.5 Z M 40 16.5 "/>
<path style=" stroke:none;fill-rule:nonzero;fill:rgb(100%,100%,100%);fill-opacity:1;" d="M 17.5 36.148438 C 15.5 36.148438 13.851562 34.5 13.851562 32.5 L 13.851562 17.5 C 13.851562 15.5 15.5 13.851562 17.5 13.851562 L 32.5 13.851562 C 34.5 13.851562 36.148438 15.5 36.148438 17.5 L 36.148438 32.5 C 36.148438 34.5 34.5 36.148438 32.5 36.148438 Z M 17.5 36.148438 "/>
<path style=" stroke:none;fill-rule:nonzero;fill:rgb(27.843139%,16.862746%,16.078432%);fill-opacity:1;" d="M 32.5 14.199219 C 34.300781 14.199219 35.800781 15.699219 35.800781 17.5 L 35.800781 32.5 C 35.800781 34.300781 34.300781 35.800781 32.5 35.800781 L 17.5 35.800781 C 15.699219 35.800781 14.199219 34.300781 14.199219 32.5 L 14.199219 17.5 C 14.199219 15.699219 15.699219 14.199219 17.5 14.199219 L 32.5 14.199219 M 32.5 13.5 L 17.5 13.5 C 15.300781 13.5 13.5 15.300781 13.5 17.5 L 13.5 32.5 C 13.5 34.699219 15.300781 36.5 17.5 36.5 L 32.5 36.5 C 34.699219 36.5 36.5 34.699219 36.5 32.5 L 36.5 17.5 C 36.5 15.300781 34.699219 13.5 32.5 13.5 Z M 32.5 13.5 "/>
<path style=" stroke:none;fill-rule:nonzero;fill:rgb(99.215686%,98.823529%,93.333334%);fill-opacity:1;" d="M 34.40625 24.105469 L 34.40625 32.15625 C 34.40625 33.40625 33.40625 34.40625 32.15625 34.40625 L 18.15625 34.40625 C 16.90625 34.40625 15.90625 33.40625 15.90625 32.15625 L 15.90625 18.15625 C 15.90625 16.90625 16.90625 15.90625 18.15625 15.90625 L 32.15625 15.90625 C 33.40625 15.90625 34.40625 16.90625 34.40625 18.15625 L 34.40625 24.105469 "/>
<path style=" stroke:none;fill-rule:nonzero;fill:rgb(27.843139%,16.862746%,16.078432%);fill-opacity:1;" d="M 34.25 23.699219 C 34.101562 23.699219 34 23.601562 34 23.449219 L 34 21.5 C 34 21.351562 34.101562 21.25 34.25 21.25 C 34.398438 21.25 34.5 21.351562 34.5 21.5 L 34.5 23.449219 C 34.5 23.601562 34.398438 23.699219 34.25 23.699219 Z M 34.25 20.25 C 34.101562 20.25 34 20.148438 34 20 L 34 19 C 34 18.851562 34.101562 18.75 34.25 18.75 C 34.398438 18.75 34.5 18.851562 34.5 19 L 34.5 20 C 34.5 20.148438 34.398438 20.25 34.25 20.25 Z M 34.25 20.25 "/>
<path style=" stroke:none;fill-rule:nonzero;fill:rgb(27.843139%,16.862746%,16.078432%);fill-opacity:1;" d="M 32 34.5 L 18 34.5 C 16.601562 34.5 15.5 33.398438 15.5 32 L 15.5 18 C 15.5 16.601562 16.601562 15.5 18 15.5 L 30.699219 15.5 C 30.851562 15.5 30.949219 15.601562 30.949219 15.75 C 30.949219 15.898438 30.851562 16 30.699219 16 L 18 16 C 16.898438 16 16 16.898438 16 18 L 16 32 C 16 33.101562 16.898438 34 18 34 L 32 34 C 33.101562 34 34 33.101562 34 32 L 34 24.800781 C 34 24.648438 34.101562 24.550781 34.25 24.550781 C 34.398438 24.550781 34.5 24.648438 34.5 24.800781 L 34.5 32 C 34.5 33.398438 33.398438 34.5 32 34.5 Z M 32 34.5 "/>
<path style=" stroke:none;fill-rule:nonzero;fill:rgb(100%,100%,100%);fill-opacity:1;" d="M 25.753906 28.492188 C 25.582031 28.394531 25.425781 28.222656 25.363281 28.054688 C 25.300781 27.890625 25.3125 27.550781 25.3125 26.964844 L 25.3125 24.21875 L 27.71875 24.21875 L 27.71875 22.15625 L 25.3125 22.15625 L 25.3125 19.75 L 23.808594 19.75 C 23.738281 20.3125 23.617188 20.777344 23.4375 21.140625 C 23.257812 21.503906 23.019531 21.816406 22.722656 22.074219 C 22.429688 22.335938 21.945312 22.535156 21.53125 22.675781 L 21.53125 24.21875 L 22.90625 24.21875 L 22.90625 27.957031 C 22.90625 28.445312 22.957031 28.816406 23.054688 29.074219 C 23.15625 29.332031 23.335938 29.574219 23.597656 29.800781 C 23.859375 30.027344 24.171875 30.203125 24.539062 30.328125 C 24.90625 30.449219 25.191406 30.511719 25.671875 30.511719 C 26.089844 30.511719 26.484375 30.46875 26.847656 30.382812 C 27.210938 30.296875 27.617188 30.144531 28.0625 29.933594 L 28.0625 28.191406 C 27.554688 28.527344 27.039062 28.691406 26.527344 28.691406 C 26.234375 28.695312 25.976562 28.625 25.753906 28.492188 Z M 25.753906 28.492188 "/>
<path style=" stroke:none;fill-rule:nonzero;fill:rgb(27.843139%,16.862746%,16.078432%);fill-opacity:1;" d="M 25.671875 30.761719 C 25.152344 30.761719 24.84375 30.695312 24.460938 30.566406 C 24.0625 30.433594 23.71875 30.238281 23.433594 29.992188 C 23.144531 29.738281 22.9375 29.460938 22.824219 29.167969 C 22.710938 28.875 22.65625 28.480469 22.65625 27.957031 L 22.65625 24.46875 L 21.53125 24.46875 C 21.390625 24.46875 21.28125 24.359375 21.28125 24.21875 L 21.28125 22.675781 C 21.28125 22.566406 21.347656 22.472656 21.449219 22.4375 C 21.960938 22.265625 22.34375 22.074219 22.558594 21.886719 C 22.828125 21.652344 23.046875 21.363281 23.214844 21.03125 C 23.378906 20.699219 23.492188 20.257812 23.558594 19.71875 C 23.574219 19.59375 23.679688 19.5 23.808594 19.5 L 25.3125 19.5 C 25.449219 19.5 25.5625 19.613281 25.5625 19.75 L 25.5625 21.90625 L 27.71875 21.90625 C 27.855469 21.90625 27.96875 22.019531 27.96875 22.15625 L 27.96875 24.21875 C 27.96875 24.355469 27.855469 24.46875 27.71875 24.46875 L 25.5625 24.46875 L 25.5625 27.175781 C 25.5625 27.558594 25.558594 27.863281 25.597656 27.964844 C 25.640625 28.078125 25.753906 28.203125 25.878906 28.277344 C 26.070312 28.386719 26.285156 28.449219 26.523438 28.4375 C 26.992188 28.4375 27.464844 28.285156 27.925781 27.980469 C 28.003906 27.933594 28.101562 27.929688 28.183594 27.972656 C 28.261719 28.015625 28.3125 28.097656 28.3125 28.191406 L 28.3125 29.929688 C 28.3125 30.027344 28.257812 30.117188 28.171875 30.15625 C 27.707031 30.378906 27.28125 30.535156 26.90625 30.625 C 26.515625 30.71875 26.101562 30.761719 25.671875 30.761719 Z M 21.78125 23.96875 L 22.90625 23.96875 C 23.042969 23.96875 23.15625 24.082031 23.15625 24.21875 L 23.15625 27.957031 C 23.15625 28.410156 23.199219 28.757812 23.289062 28.988281 C 23.375 29.203125 23.535156 29.414062 23.761719 29.617188 C 23.996094 29.820312 24.285156 29.980469 24.621094 30.09375 C 24.960938 30.207031 25.214844 30.261719 25.671875 30.261719 C 26.0625 30.261719 26.441406 30.222656 26.789062 30.140625 C 27.09375 30.066406 27.4375 29.945312 27.8125 29.773438 L 27.8125 28.625 C 27.378906 28.839844 26.9375 28.9375 26.5 28.941406 C 26.179688 28.941406 25.886719 28.863281 25.625 28.707031 C 25.402344 28.578125 25.210938 28.359375 25.132812 28.140625 C 25.058594 27.957031 25.058594 27.679688 25.0625 27.175781 L 25.0625 24.21875 C 25.0625 24.082031 25.175781 23.96875 25.3125 23.96875 L 27.46875 23.96875 L 27.46875 22.40625 L 25.3125 22.40625 C 25.175781 22.40625 25.0625 22.296875 25.0625 22.15625 L 25.0625 20 L 24.027344 20 C 23.949219 20.5 23.828125 20.914062 23.660156 21.25 C 23.46875 21.644531 23.207031 21.988281 22.886719 22.265625 C 22.648438 22.472656 22.277344 22.671875 21.78125 22.851562 Z M 21.78125 23.96875 "/>
</g>
</svg>
