<?xml version="1.0" encoding="UTF-8"?>
<svg xmlns="http://www.w3.org/2000/svg" xmlns:xlink="http://www.w3.org/1999/xlink" viewBox="0 0 50 50" width="50px" height="50px">
<g id="surface742641">
<path style=" stroke:none;fill-rule:nonzero;fill:rgb(94.509804%,83.137256%,9.803922%);fill-opacity:1;" d="M 38.5 6 C 38.222656 6 38 6.222656 38 6.5 C 38 6.777344 38.222656 7 38.5 7 C 38.777344 7 39 6.777344 39 6.5 C 39 6.222656 38.777344 6 38.5 6 Z M 38.5 6 "/>
<path style=" stroke:none;fill-rule:nonzero;fill:rgb(58.823532%,81.176472%,73.333335%);fill-opacity:1;" d="M 25 6.5 C 14.78125 6.5 6.5 14.78125 6.5 25 C 6.5 35.21875 14.78125 43.5 25 43.5 C 35.21875 43.5 43.5 35.21875 43.5 25 C 43.5 14.78125 35.21875 6.5 25 6.5 Z M 25 6.5 "/>
<path style=" stroke:none;fill-rule:nonzero;fill:rgb(94.509804%,83.137256%,9.803922%);fill-opacity:1;" d="M 41.5 5.5 C 40.394531 5.5 39.5 6.394531 39.5 7.5 C 39.5 8.605469 40.394531 9.5 41.5 9.5 C 42.605469 9.5 43.5 8.605469 43.5 7.5 C 43.5 6.394531 42.605469 5.5 41.5 5.5 Z M 41.5 5.5 "/>
<path style=" stroke:none;fill-rule:nonzero;fill:rgb(43.529412%,67.843139%,2.745098%);fill-opacity:1;" d="M 43.5 11 C 42.949219 11 42.5 11.449219 42.5 12 C 42.5 12.550781 42.949219 13 43.5 13 C 44.050781 13 44.5 12.550781 44.5 12 C 44.5 11.449219 44.050781 11 43.5 11 Z M 43.5 11 "/>
<path style=" stroke:none;fill-rule:nonzero;fill:rgb(98.431373%,80.392158%,34.901962%);fill-opacity:1;" d="M 40.5 37 C 39.949219 37 39.5 37.449219 39.5 38 C 39.5 38.550781 39.949219 39 40.5 39 C 41.050781 39 41.5 38.550781 41.5 38 C 41.5 37.449219 41.050781 37 40.5 37 Z M 7.5 29.5 C 6.394531 29.5 5.5 30.394531 5.5 31.5 C 5.5 32.605469 6.394531 33.5 7.5 33.5 C 8.605469 33.5 9.5 32.605469 9.5 31.5 C 9.5 30.394531 8.605469 29.5 7.5 29.5 Z M 7.5 29.5 "/>
<path style=" stroke:none;fill-rule:nonzero;fill:rgb(43.529412%,67.843139%,2.745098%);fill-opacity:1;" d="M 12.5 42.5 C 11.949219 42.5 11.5 42.949219 11.5 43.5 C 11.5 44.050781 11.949219 44.5 12.5 44.5 C 13.050781 44.5 13.5 44.050781 13.5 43.5 C 13.5 42.949219 13.050781 42.5 12.5 42.5 Z M 12.5 42.5 "/>
<path style=" stroke:none;fill-rule:nonzero;fill:rgb(100%,100%,100%);fill-opacity:1;" d="M 9.25 24.5 C 8.558594 24.5 8 25.058594 8 25.75 C 8 26.441406 8.558594 27 9.25 27 C 9.941406 27 10.5 26.441406 10.5 25.75 C 10.5 25.058594 9.941406 24.5 9.25 24.5 Z M 39.75 16 C 39.335938 16 39 16.335938 39 16.75 C 39 17.164062 39.335938 17.5 39.75 17.5 C 40.164062 17.5 40.5 17.164062 40.5 16.75 C 40.5 16.335938 40.164062 16 39.75 16 Z M 39.75 16 "/>
<path style=" stroke:none;fill-rule:nonzero;fill:rgb(45.09804%,69.803923%,89.803922%);fill-opacity:1;" d="M 17.5 36.148438 C 15.5 36.148438 13.851562 34.5 13.851562 32.5 L 13.851562 17.5 C 13.851562 15.5 15.5 13.851562 17.5 13.851562 L 32.5 13.851562 C 34.5 13.851562 36.148438 15.5 36.148438 17.5 L 36.148438 32.5 C 36.148438 34.5 34.5 36.148438 32.5 36.148438 Z M 17.5 36.148438 "/>
<path style=" stroke:none;fill-rule:nonzero;fill:rgb(27.843139%,16.862746%,16.078432%);fill-opacity:1;" d="M 32.5 14.199219 C 34.300781 14.199219 35.800781 15.699219 35.800781 17.5 L 35.800781 32.5 C 35.800781 34.300781 34.300781 35.800781 32.5 35.800781 L 17.5 35.800781 C 15.699219 35.800781 14.199219 34.300781 14.199219 32.5 L 14.199219 17.5 C 14.199219 15.699219 15.699219 14.199219 17.5 14.199219 L 32.5 14.199219 M 32.5 13.5 L 17.5 13.5 C 15.300781 13.5 13.5 15.300781 13.5 17.5 L 13.5 32.5 C 13.5 34.699219 15.300781 36.5 17.5 36.5 L 32.5 36.5 C 34.699219 36.5 36.5 34.699219 36.5 32.5 L 36.5 17.5 C 36.5 15.300781 34.699219 13.5 32.5 13.5 Z M 32.5 13.5 "/>
<path style=" stroke:none;fill-rule:nonzero;fill:rgb(99.215686%,98.823529%,93.333334%);fill-opacity:1;" d="M 34.25 23.949219 L 34.25 32 C 34.25 33.25 33.25 34.25 32 34.25 L 18 34.25 C 16.75 34.25 15.75 33.25 15.75 32 L 15.75 18 C 15.75 16.75 16.75 15.75 18 15.75 L 32 15.75 C 33.25 15.75 34.25 16.75 34.25 18 L 34.25 23.949219 "/>
<path style=" stroke:none;fill-rule:nonzero;fill:rgb(27.843139%,16.862746%,16.078432%);fill-opacity:1;" d="M 34.25 23.699219 C 34.101562 23.699219 34 23.601562 34 23.449219 L 34 21.5 C 34 21.351562 34.101562 21.25 34.25 21.25 C 34.398438 21.25 34.5 21.351562 34.5 21.5 L 34.5 23.449219 C 34.5 23.601562 34.398438 23.699219 34.25 23.699219 Z M 34.25 20.25 C 34.101562 20.25 34 20.148438 34 20 L 34 19 C 34 18.851562 34.101562 18.75 34.25 18.75 C 34.398438 18.75 34.5 18.851562 34.5 19 L 34.5 20 C 34.5 20.148438 34.398438 20.25 34.25 20.25 Z M 34.25 20.25 "/>
<path style=" stroke:none;fill-rule:nonzero;fill:rgb(27.843139%,16.862746%,16.078432%);fill-opacity:1;" d="M 32 34.5 L 18 34.5 C 16.601562 34.5 15.5 33.398438 15.5 32 L 15.5 18 C 15.5 16.601562 16.601562 15.5 18 15.5 L 30.699219 15.5 C 30.851562 15.5 30.949219 15.601562 30.949219 15.75 C 30.949219 15.898438 30.851562 16 30.699219 16 L 18 16 C 16.898438 16 16 16.898438 16 18 L 16 32 C 16 33.101562 16.898438 34 18 34 L 32 34 C 33.101562 34 34 33.101562 34 32 L 34 24.800781 C 34 24.648438 34.101562 24.550781 34.25 24.550781 C 34.398438 24.550781 34.5 24.648438 34.5 24.800781 L 34.5 32 C 34.5 33.398438 33.398438 34.5 32 34.5 Z M 32 34.5 "/>
<path style=" stroke:none;fill-rule:nonzero;fill:rgb(14.901961%,54.509807%,93.725491%);fill-opacity:1;" d="M 30.949219 21.398438 C 30.5 21.601562 30 21.75 29.5 21.800781 C 30 21.5 30.398438 21 30.601562 20.398438 C 30.101562 20.699219 29.601562 20.898438 29 21 C 28.550781 20.5 27.898438 20.199219 27.148438 20.199219 C 25.75 20.199219 24.648438 21.351562 24.648438 22.75 C 24.648438 22.949219 24.648438 23.148438 24.699219 23.351562 C 22.601562 23.25 20.800781 22.25 19.550781 20.699219 C 19.351562 21.101562 19.199219 21.5 19.199219 22 C 19.199219 22.898438 19.648438 23.648438 20.300781 24.148438 C 19.898438 24.148438 19.5 24 19.148438 23.851562 C 19.148438 23.851562 19.148438 23.851562 19.148438 23.898438 C 19.148438 25.148438 20 26.148438 21.148438 26.398438 C 20.949219 26.449219 20.699219 26.5 20.5 26.5 C 20.351562 26.5 20.199219 26.5 20.050781 26.449219 C 20.351562 27.449219 21.300781 28.199219 22.398438 28.199219 C 21.550781 28.898438 20.449219 29.300781 19.300781 29.300781 C 19.101562 29.300781 18.898438 29.300781 18.699219 29.25 C 19.800781 29.949219 21.101562 30.398438 22.550781 30.398438 C 27.148438 30.398438 29.648438 26.5 29.648438 23.148438 C 29.648438 23.050781 29.648438 22.949219 29.648438 22.800781 C 30.199219 22.351562 30.648438 21.898438 30.949219 21.398438 Z M 30.949219 21.398438 "/>
<path style=" stroke:none;fill-rule:nonzero;fill:rgb(27.843139%,16.862746%,16.078432%);fill-opacity:1;" d="M 22.601562 30.550781 C 21.199219 30.550781 19.800781 30.148438 18.648438 29.351562 C 18.550781 29.300781 18.5 29.148438 18.550781 29.050781 C 18.601562 28.949219 18.699219 28.851562 18.800781 28.898438 C 19.898438 29.050781 20.898438 28.800781 21.800781 28.25 C 20.898438 28 20.148438 27.300781 19.898438 26.398438 C 19.851562 26.300781 19.898438 26.199219 19.949219 26.148438 C 20 26.101562 20.101562 26.050781 20.199219 26.050781 C 19.5 25.550781 19 24.699219 19 23.75 C 19 23.648438 19.050781 23.550781 19.101562 23.5 C 19.199219 23.449219 19.25 23.449219 19.351562 23.5 C 19.398438 23.550781 19.5 23.550781 19.550781 23.601562 C 19.199219 23.101562 19 22.550781 19 21.898438 C 19 21.398438 19.148438 20.898438 19.351562 20.5 C 19.398438 20.449219 19.449219 20.398438 19.550781 20.351562 C 19.648438 20.351562 19.699219 20.398438 19.75 20.449219 C 20.898438 21.898438 22.601562 22.851562 24.398438 23 C 24.398438 22.898438 24.398438 22.800781 24.398438 22.699219 C 24.398438 21.148438 25.648438 19.898438 27.148438 19.898438 C 27.851562 19.898438 28.550781 20.199219 29.050781 20.699219 C 29.550781 20.601562 30 20.398438 30.449219 20.148438 C 30.550781 20.101562 30.648438 20.101562 30.75 20.148438 C 30.851562 20.199219 30.851562 20.300781 30.851562 20.398438 C 30.75 20.75 30.601562 21.050781 30.398438 21.300781 C 30.550781 21.25 30.699219 21.199219 30.851562 21.101562 C 30.949219 21.050781 31.050781 21.101562 31.148438 21.148438 C 31.199219 21.25 31.25 21.351562 31.148438 21.449219 C 30.800781 21.949219 30.398438 22.398438 29.949219 22.75 C 29.949219 22.800781 29.949219 22.898438 29.949219 22.949219 C 30 26.75 27.199219 30.550781 22.601562 30.550781 Z M 19.800781 29.449219 C 20.699219 29.851562 21.648438 30.101562 22.648438 30.101562 C 26.949219 30.101562 29.5 26.550781 29.5 23.101562 C 29.5 23 29.5 22.898438 29.5 22.800781 C 29.5 22.699219 29.550781 22.648438 29.601562 22.601562 C 29.851562 22.398438 30.050781 22.199219 30.25 22 C 30.050781 22.050781 29.800781 22.101562 29.550781 22.148438 C 29.449219 22.148438 29.300781 22.101562 29.300781 22 C 29.25 21.898438 29.300781 21.75 29.398438 21.699219 C 29.648438 21.550781 29.898438 21.300781 30.101562 21.050781 C 29.800781 21.199219 29.449219 21.300781 29.101562 21.351562 C 29 21.351562 28.949219 21.351562 28.851562 21.25 C 28.449219 20.800781 27.851562 20.5 27.199219 20.5 C 25.949219 20.5 24.949219 21.550781 24.949219 22.800781 C 24.949219 23 24.949219 23.148438 25 23.351562 C 25 23.449219 25 23.5 24.949219 23.550781 C 24.898438 23.601562 24.800781 23.648438 24.75 23.648438 C 22.800781 23.550781 20.949219 22.648438 19.648438 21.199219 C 19.550781 21.449219 19.5 21.75 19.5 22.050781 C 19.5 22.800781 19.898438 23.550781 20.5 23.949219 C 20.601562 24 20.648438 24.148438 20.601562 24.25 C 20.550781 24.351562 20.449219 24.449219 20.351562 24.398438 C 20.050781 24.398438 19.800781 24.351562 19.5 24.25 C 19.648438 25.199219 20.351562 25.949219 21.25 26.148438 C 21.351562 26.148438 21.449219 26.25 21.449219 26.398438 C 21.449219 26.5 21.398438 26.601562 21.25 26.648438 C 21 26.699219 20.699219 26.75 20.449219 26.75 C 20.851562 27.5 21.550781 27.949219 22.398438 28 C 22.5 28 22.601562 28.050781 22.648438 28.148438 C 22.699219 28.25 22.648438 28.351562 22.550781 28.449219 C 21.800781 28.949219 20.800781 29.351562 19.800781 29.449219 Z M 19.800781 29.449219 "/>
</g>
</svg>
